<svg width="405" height="137" viewBox="0 0 405 137" fill="none" xmlns="http://www.w3.org/2000/svg">
<path d="M102.064 84.557C98.5334 84.5236 95.4876 83.7447 92.9261 82.2204C90.38 80.6811 88.4227 78.5564 87.0544 75.8464C85.6862 73.1212 85.019 69.9708 85.0528 66.3952C85.087 62.7893 85.8137 59.6445 87.2331 56.9608C88.6527 54.262 90.6498 52.1748 93.2245 50.6991C95.8145 49.2084 98.8745 48.4797 102.405 48.5132C105.935 48.5466 108.973 49.3329 111.519 50.8722C114.081 52.3966 116.045 54.5213 117.414 57.2465C118.782 59.9565 119.449 63.1145 119.415 66.7204C119.381 70.296 118.654 73.4332 117.235 76.132C115.815 78.8157 113.811 80.9029 111.221 82.3936C108.646 83.8693 105.594 84.5904 102.064 84.557ZM102.18 77.0578C103.786 77.073 105.131 76.6311 106.215 75.7323C107.3 74.8182 108.122 73.5684 108.683 71.9827C109.258 70.3972 109.556 68.5893 109.575 66.5591C109.594 64.5289 109.331 62.7157 108.786 61.1196C108.255 59.5236 107.457 58.2584 106.39 57.324C105.323 56.3896 103.986 55.9148 102.38 55.8996C100.759 55.8843 99.3911 56.3335 98.2764 57.2472C97.1768 58.1611 96.3391 59.4108 95.7635 60.9963C95.203 62.582 94.9132 64.3899 94.8939 66.4201C94.8747 68.4504 95.1303 70.2635 95.6607 71.8595C96.2062 73.4556 97.02 74.7209 98.1021 75.6555C99.1995 76.575 100.559 77.0424 102.18 77.0578ZM125.422 97.1877L125.877 49.1899L135.422 49.2802L135.366 55.1436L135.798 55.1477C136.231 54.2123 136.854 53.2636 137.666 52.3016C138.493 51.3245 139.562 50.5164 140.871 49.8773C142.195 49.2231 143.835 48.9053 145.789 48.9238C148.334 48.9479 150.676 49.6367 152.815 50.9904C154.954 52.3289 156.655 54.3375 157.918 57.0162C159.18 59.6798 159.793 63.0115 159.755 67.0113C159.718 70.9051 159.058 74.1869 157.775 76.8567C156.508 79.5114 154.792 81.518 152.627 82.8764C150.478 84.2197 148.078 84.8789 145.426 84.8538C143.548 84.836 141.952 84.5103 140.64 83.8766C139.343 83.2431 138.282 82.4527 137.458 81.5055C136.633 80.5431 136.006 79.575 135.576 78.6012L135.28 78.5984L135.104 97.2794L125.422 97.1877ZM135.188 66.7333C135.169 68.809 135.439 70.6222 136 72.1731C136.562 73.7239 137.383 74.9363 138.466 75.8102C139.549 76.669 140.871 77.1058 142.431 77.1205C144.007 77.1354 145.344 76.7163 146.443 75.863C147.542 74.9946 148.38 73.7903 148.955 72.2502C149.545 70.6952 149.85 68.9025 149.869 66.8723C149.888 64.8572 149.625 63.0819 149.079 61.5464C148.533 60.0108 147.718 58.8061 146.636 57.9322C145.553 57.0583 144.216 56.6138 142.625 56.5987C141.05 56.5838 139.712 56.9878 138.614 57.8108C137.53 58.6339 136.693 59.8079 136.103 61.3327C135.513 62.8574 135.208 64.6577 135.188 66.7333ZM181.946 85.3131C178.356 85.2791 175.272 84.5226 172.695 83.0436C170.133 81.5496 168.168 79.4551 166.799 76.7602C165.431 74.0502 164.764 70.8543 164.799 67.1727C164.833 63.5819 165.56 60.4372 166.979 57.7384C168.399 55.0396 170.381 52.9446 172.925 51.4534C175.485 49.9625 178.477 49.2332 181.901 49.2656C184.204 49.2874 186.344 49.6789 188.322 50.44C190.315 51.1862 192.047 52.3011 193.518 53.7848C195.004 55.2686 196.153 57.1281 196.965 59.3631C197.778 61.5831 198.17 64.1778 198.142 67.1474L198.117 69.8063L168.641 69.5273L168.697 63.5276L189.06 63.7203C189.073 62.3265 188.782 61.0888 188.186 60.0074C187.59 58.9259 186.757 58.0771 185.687 57.4609C184.633 56.8296 183.401 56.5074 181.992 56.494C180.522 56.4801 179.216 56.8087 178.073 57.4797C176.946 58.1357 176.058 59.0289 175.411 60.1592C174.764 61.2743 174.427 62.5212 174.399 63.8998L174.345 69.6041C174.328 71.3312 174.632 72.8266 175.257 74.0902C175.896 75.3538 176.804 76.3322 177.979 77.0251C179.154 77.7181 180.553 78.0723 182.174 78.0876C183.249 78.0978 184.236 77.9556 185.132 77.6611C186.029 77.3665 186.799 76.9192 187.441 76.3192C188.083 75.7192 188.575 74.9814 188.916 74.1058L197.865 74.7814C197.39 76.9286 196.44 78.7984 195.016 80.3911C193.607 81.9687 191.793 83.194 189.572 84.067C187.367 84.925 184.825 85.3403 181.946 85.3131ZM214.165 64.7534L213.974 84.9344L204.293 84.8427L204.623 49.9352L213.85 50.0225L213.792 56.1813L214.201 56.1852C214.993 54.1623 216.303 52.5686 218.132 51.404C219.962 50.2243 222.172 49.6467 224.763 49.6713C227.187 49.6942 229.295 50.2445 231.088 51.3221C232.881 52.3997 234.268 53.9281 235.25 55.9071C236.231 57.8711 236.709 60.209 236.683 62.921L236.473 85.1473L226.792 85.0557L226.986 64.5566C227.021 62.4205 226.491 60.7487 225.397 59.5413C224.302 58.3188 222.785 57.6983 220.846 57.68C219.543 57.6677 218.389 57.9371 217.384 58.4882C216.393 59.0394 215.613 59.8503 215.042 60.9207C214.487 61.9761 214.194 63.2537 214.165 64.7534Z" fill="white"/>
<path d="M243.979 98.3098L244.434 50.312L253.979 50.4023L253.923 56.2657L254.355 56.2698C254.788 55.3345 255.411 54.3858 256.223 53.4237C257.05 52.4467 258.119 51.6385 259.428 50.9994C260.752 50.3452 262.392 50.0274 264.346 50.0459C266.892 50.07 269.234 50.7589 271.372 52.1125C273.511 53.451 275.212 55.4596 276.475 58.1383C277.737 60.8019 278.35 64.1336 278.312 68.1334C278.275 72.0272 277.615 75.309 276.332 77.9788C275.065 80.6336 273.349 82.6401 271.184 83.9985C269.035 85.3419 266.635 86.001 263.983 85.9759C262.105 85.9581 260.509 85.6324 259.197 84.9987C257.9 84.3652 256.839 83.5748 256.015 82.6276C255.191 81.6652 254.563 80.6971 254.133 79.7233L253.838 79.7205L253.661 98.4015L243.979 98.3098ZM253.745 67.8555C253.726 69.9311 253.997 71.7444 254.558 73.2952C255.119 74.846 255.941 76.0584 257.023 76.9323C258.106 77.7911 259.428 78.2279 260.988 78.2427C262.564 78.2576 263.901 77.8384 265 76.9851C266.1 76.1167 266.937 74.9124 267.512 73.3724C268.103 71.8173 268.407 70.0246 268.427 67.9944C268.446 65.9793 268.182 64.204 267.636 62.6685C267.09 61.133 266.276 59.9282 265.193 59.0543C264.11 58.1804 262.773 57.7359 261.183 57.7208C259.607 57.7059 258.27 58.11 257.171 58.9329C256.087 59.756 255.25 60.93 254.66 62.4548C254.07 63.9796 253.765 65.7798 253.745 67.8555ZM294.549 86.3561C292.322 86.335 290.341 85.9299 288.606 85.1407C286.871 84.3364 285.503 83.1643 284.503 81.6244C283.518 80.0696 283.036 78.1407 283.058 75.8378C283.076 73.8985 283.447 72.2731 284.172 70.9617C284.896 69.6504 285.876 68.599 287.111 67.8076C288.346 67.0162 289.745 66.4234 291.31 66.0291C292.889 65.6349 294.544 65.3627 296.272 65.2124C298.305 65.0195 299.943 64.838 301.187 64.668C302.431 64.4828 303.335 64.2034 303.899 63.83C304.464 63.4565 304.749 62.8986 304.756 62.1562L304.757 62.0198C304.771 60.5805 304.327 59.4626 303.426 58.6661C302.539 57.8698 301.27 57.4639 299.619 57.4482C297.876 57.4318 296.486 57.805 295.449 58.5679C294.411 59.3157 293.721 60.2638 293.376 61.4121L284.429 60.6001C284.904 58.4833 285.815 56.6585 287.163 55.1257C288.511 53.5778 290.242 52.3971 292.356 51.5838C294.485 50.7554 296.943 50.3544 299.731 50.3808C301.67 50.3992 303.524 50.644 305.293 51.1153C307.076 51.5867 308.653 52.3062 310.022 53.2738C311.407 54.2415 312.494 55.4791 313.283 56.9866C314.072 58.479 314.456 60.263 314.437 62.3387L314.214 85.8831L305.032 85.7962L305.078 80.9555L304.806 80.9529C304.235 82.0385 303.476 82.9935 302.528 83.8179C301.581 84.6271 300.446 85.2604 299.124 85.7176C297.801 86.1596 296.277 86.3725 294.549 86.3561ZM297.385 79.7008C298.809 79.7143 300.07 79.4459 301.166 78.8957C302.262 78.3303 303.125 77.5657 303.756 76.6019C304.386 75.6381 304.707 74.5426 304.719 73.3154L304.754 69.611C304.449 69.8051 304.031 69.983 303.499 70.1446C302.982 70.2913 302.397 70.4297 301.745 70.5599C301.092 70.6749 300.439 70.7824 299.787 70.8823C299.135 70.967 298.543 71.0447 298.012 71.1155C296.874 71.2714 295.879 71.5271 295.027 71.8827C294.175 72.2383 293.512 72.7245 293.036 73.3412C292.561 73.9428 292.319 74.6981 292.31 75.6072C292.298 76.9253 292.765 77.9373 293.713 78.6433C294.676 79.3343 295.9 79.6868 297.385 79.7008ZM351.005 61.2757L342.137 61.7372C341.992 60.9782 341.673 60.2934 341.179 59.6826C340.685 59.0567 340.03 58.558 339.216 58.1867C338.416 57.8003 337.456 57.6018 336.335 57.5912C334.835 57.577 333.567 57.8832 332.531 58.5098C331.494 59.1212 330.971 59.9496 330.962 60.995C330.954 61.8283 331.28 62.536 331.941 63.1181C332.603 63.7001 333.742 64.173 335.36 64.5368L341.666 65.8693C345.053 66.5984 347.573 67.7435 349.225 69.3046C350.877 70.8658 351.691 72.9039 351.667 75.4189C351.645 77.7067 350.952 79.7078 349.587 81.4222C348.238 83.1368 346.392 84.4679 344.049 85.4155C341.722 86.348 339.043 86.8 336.013 86.7713C331.392 86.7275 327.72 85.7306 324.996 83.7805C322.287 81.8154 320.713 79.164 320.275 75.8264L329.802 75.4165C330.077 76.8283 330.764 77.9106 331.863 78.6635C332.962 79.4012 334.375 79.7782 336.102 79.7945C337.799 79.8106 339.166 79.4978 340.202 78.856C341.254 78.1993 341.792 77.3483 341.817 76.303C341.81 75.4241 341.446 74.7009 340.724 74.1335C340.002 73.5509 338.885 73.1009 337.373 72.7835L331.339 71.5218C327.937 70.8078 325.41 69.602 323.759 67.9045C322.124 66.2071 321.318 64.0554 321.343 61.4495C321.364 59.2072 321.989 57.2812 323.216 55.6715C324.459 54.062 326.19 52.8283 328.41 51.9705C330.646 51.1128 333.256 50.6981 336.241 50.7264C340.65 50.7681 344.11 51.7327 346.623 53.6202C349.151 55.5079 350.611 58.0597 351.005 61.2757ZM386.941 61.6158L378.073 62.0773C377.928 61.3184 377.609 60.6335 377.115 60.0227C376.621 59.3968 375.966 58.8982 375.152 58.5268C374.352 58.1404 373.392 57.9419 372.271 57.9313C370.771 57.9171 369.503 58.2233 368.466 58.8499C367.43 59.4613 366.907 60.2898 366.897 61.3352C366.89 62.1685 367.216 62.8761 367.877 63.4582C368.539 64.0402 369.678 64.5131 371.296 64.877L377.602 66.2094C380.989 66.9385 383.509 68.0836 385.16 69.6448C386.812 71.2059 387.627 73.244 387.603 75.7591C387.581 78.0468 386.888 80.0479 385.523 81.7624C384.173 83.4769 382.327 84.808 379.985 85.7556C377.658 86.6881 374.979 87.1401 371.949 87.1114C367.328 87.0677 363.656 86.0707 360.931 84.1206C358.223 82.1555 356.649 79.5041 356.211 76.1665L365.738 75.7567C366.013 77.1684 366.699 78.2507 367.798 79.0036C368.898 79.7413 370.311 80.1183 372.038 80.1347C373.735 80.1507 375.101 79.8379 376.138 79.1962C377.19 78.5394 377.728 77.6884 377.753 76.6431C377.746 75.7642 377.382 75.0411 376.66 74.4736C375.938 73.891 374.821 73.441 373.309 73.1237L367.275 71.8619C363.873 71.1479 361.346 69.9421 359.695 68.2446C358.06 66.5472 357.254 64.3956 357.279 61.7896C357.3 59.5473 357.925 57.6213 359.152 56.0116C360.395 54.4021 362.126 53.1684 364.346 52.3106C366.582 51.453 369.192 51.0382 372.177 51.0665C376.586 51.1082 380.046 52.0728 382.559 53.9603C385.087 55.848 386.547 58.3998 386.941 61.6158Z" fill="#38BDF8"/>
<path d="M17.4032 10.1378C32.4199 10.26 46.7727 16.3546 57.3046 27.081C67.8363 37.8071 73.6842 52.2865 73.5617 67.3335C73.4393 82.3805 67.3564 96.7629 56.6515 107.316C45.9464 117.87 31.4963 123.73 16.4797 123.608" stroke="#47C8FF" stroke-opacity="0.25" stroke-width="2" stroke-linecap="round"/>
<path d="M17.4832 21.4124C23.401 21.4605 29.2517 22.6763 34.7007 24.9901C40.1499 27.3039 45.0908 30.6705 49.2414 34.8978C53.3919 39.125 56.6709 44.13 58.891 49.6271C61.1111 55.1241 62.229 61.0056 62.1807 66.9355C62.1324 72.8655 60.919 78.7281 58.6096 84.1882C56.3002 89.6485 52.9402 94.5995 48.7214 98.7584C44.5028 102.918 39.5076 106.203 34.0217 108.428C28.5355 110.653 22.666 111.773 16.7479 111.725" stroke="#47C8FF" stroke-opacity="0.55" stroke-width="2" stroke-linecap="round"/>
<path d="M17.3891 32.9875C21.7902 33.0232 26.141 33.9273 30.1933 35.6479C34.2455 37.3688 37.92 39.8724 41.0066 43.0159C44.093 46.1596 46.5316 49.8816 48.1826 53.9697C49.8337 58.0577 50.665 62.4315 50.629 66.8413C50.5931 71.2514 49.6908 75.611 47.9735 79.6715C46.256 83.732 43.7574 87.414 40.62 90.507C37.4826 93.6 33.7679 96.0434 29.6881 97.6979C25.6085 99.3524 21.2435 100.186 16.8424 100.15" stroke="#47C8FF" stroke-width="2.5" stroke-linecap="round"/>
<path d="M6.5691 65.6097C6.51511 72.0044 11.6448 77.2319 18.0265 77.2858C24.4082 77.3397 29.6254 72.1995 29.6794 65.8049C29.7334 59.4102 24.6037 54.1826 18.222 54.1288C11.8403 54.0749 6.62309 59.2151 6.5691 65.6097Z" fill="#47C8FF"/>
</svg>
